# xmcd
#
# Track frame offsets: 
#        150
#        15223
#        33595
#        48148
#        63053
#        76852
#        90741
#        106683
#
# Disc length: 1609 seconds
#
# Revision: 0
# Processed by: cddbd v1.5.2PL0 Copyright (c) Steve Scherf et al.
# Submitted via: ExactAudioCopy v0.99pb3
#
DISCID=48064708
DTITLE=T. Graham Brown - I Tell It Like It Used To Be
DYEAR=1900
DGENRE=Country
TTITLE0=Darlene
TTITLE1=Don't Go To Strangers
TTITLE2=Hell And High Water
TTITLE3=She Couldn't Love Anymore
TTITLE4=I Wish I Could Hurt That Way Again
TTITLE5=I Tell It Like It Used To Be
TTITLE6=The Last Resort
TTITLE7=Come As You Were 
EXTD=
EXTT0=
EXTT1=
EXTT2=
EXTT3=
EXTT4=
EXTT5=
EXTT6=
EXTT7=
PLAYORDER=
